<?xml version="1.0" encoding="UTF-8" standalone="no"?>
<!-- Created with Inkscape (http://www.inkscape.org/) -->

<svg
   width="512"
   height="256"
   viewBox="0 0 135.46666 67.733333"
   version="1.1"
   id="svg1"
   inkscape:version="1.3.2 (091e20ef0f, 2023-11-25)"
   sodipodi:docname="了.svg"
   xml:space="preserve"
   inkscape:export-filename="爱了.png"
   inkscape:export-xdpi="96"
   inkscape:export-ydpi="96"
   xmlns:inkscape="http://www.inkscape.org/namespaces/inkscape"
   xmlns:sodipodi="http://sodipodi.sourceforge.net/DTD/sodipodi-0.dtd"
   xmlns:xlink="http://www.w3.org/1999/xlink"
   xmlns="http://www.w3.org/2000/svg"
   xmlns:svg="http://www.w3.org/2000/svg"
   xmlns:rdf="http://www.w3.org/1999/02/22-rdf-syntax-ns#"
   xmlns:cc="http://creativecommons.org/ns#"
   xmlns:dc="http://purl.org/dc/elements/1.1/"><defs
     id="defs1"><inkscape:path-effect
       effect="fillet_chamfer"
       id="path-effect1"
       is_visible="true"
       lpeversion="1"
       nodesatellites_param="F,0,0,1,0,15,0,1 @ F,0,0,1,0,15,0,1 @ F,0,0,1,0,15,0,1 @ F,0,0,1,0,15,0,1"
       radius="0"
       unit="px"
       method="auto"
       mode="F"
       chamfer_steps="1"
       flexible="false"
       use_knot_distance="true"
       apply_no_radius="true"
       apply_with_radius="true"
       only_selected="false"
       hide_knots="false" /></defs><sodipodi:namedview
     id="base"
     pagecolor="#ffffff"
     bordercolor="#000000"
     borderopacity="0.3"
     inkscape:pageopacity="0.0"
     inkscape:pageshadow="2"
     inkscape:zoom="1.6141471"
     inkscape:cx="271.35074"
     inkscape:cy="172.22718"
     inkscape:document-units="mm"
     inkscape:showpageshadow="0"
     inkscape:pagecheckerboard="1"
     inkscape:deskcolor="#d1d1d1"
     inkscape:window-width="1900"
     inkscape:window-height="998"
     inkscape:window-x="0"
     inkscape:window-y="0"
     inkscape:window-maximized="1"
     inkscape:current-layer="g3" /><metadata
     id="metadata1"><rdf:RDF><cc:Work
         rdf:about=""><dc:format>image/svg+xml</dc:format><dc:type
           rdf:resource="http://purl.org/dc/dcmitype/StillImage" /></cc:Work></rdf:RDF></metadata><path
     style="fill:#ffffff;stroke-width:0.167"
     id="rect1"
     width="135.46666"
     height="67.73333"
     x="0"
     y="0"
     inkscape:path-effect="#path-effect1"
     sodipodi:type="rect"
     d="m 15,0 h 105.46666 a 15,15 45 0 1 15,15 v 37.73333 a 15,15 135 0 1 -15,15 H 15 a 15,15 45 0 1 -15,-15 V 15 A 15,15 135 0 1 15,0 Z" /><g
     id="g3"
     inkscape:label="text"
     style="display:inline"
     transform="translate(-6.3499972)"><text
       xml:space="preserve"
       style="font-style:normal;font-variant:normal;font-weight:normal;font-stretch:normal;font-size:33.8666px;line-height:1.25;font-family:'MiSans VF';-inkscape-font-specification:'MiSans VF, Normal';font-variant-ligatures:normal;font-variant-caps:normal;font-variant-numeric:normal;font-variant-east-asian:normal;display:none;fill:#2cbe4e;fill-opacity:1;stroke-width:0.265;stroke-dasharray:none"
       x="65.379723"
       y="47.104095"
       id="text8"
       inkscape:label="开了"><tspan
         sodipodi:role="line"
         id="tspan8"
         x="65.379723"
         y="47.104095">开了</tspan></text><text
       xml:space="preserve"
       style="font-size:33.8666px;line-height:1.25;font-family:'MiSans VF';-inkscape-font-specification:'MiSans VF';display:none;fill:#cb2431;fill-opacity:1;stroke-width:0.265;stroke-dasharray:none"
       x="65.379723"
       y="47.104095"
       id="text2"
       inkscape:label="关了"><tspan
         sodipodi:role="line"
         id="tspan2"
         style="font-size:33.8666px;fill:#cb2431;fill-opacity:1;stroke-width:0.265;stroke-dasharray:none"
         x="65.379723"
         y="47.104095">关了</tspan></text><text
       xml:space="preserve"
       style="font-size:33.8666px;line-height:1.25;font-family:'MiSans VF';-inkscape-font-specification:'MiSans VF';display:none;fill:#6f42c1;fill-opacity:1;stroke-width:0.265;stroke-dasharray:none"
       x="65.379723"
       y="47.104095"
       id="text4"
       inkscape:label="合了"><tspan
         sodipodi:role="line"
         id="tspan4"
         style="font-size:33.8666px;fill:#6f42c1;fill-opacity:1;stroke-width:0.265;stroke-dasharray:none"
         x="65.379723"
         y="47.104095">合了</tspan></text><text
       xml:space="preserve"
       style="font-size:33.8666px;line-height:1.25;font-family:'MiSans VF';-inkscape-font-specification:'MiSans VF';display:none;fill:#cb2431;fill-opacity:1;stroke-width:0.265;stroke-dasharray:none"
       x="65.379723"
       y="47.104095"
       id="text5"
       inkscape:label="审了（红）"><tspan
         sodipodi:role="line"
         id="tspan5"
         style="font-size:33.8666px;fill:#cb2431;fill-opacity:1;stroke-width:0.265;stroke-dasharray:none"
         x="65.379723"
         y="47.104095">审了</tspan></text><text
       xml:space="preserve"
       style="font-size:33.8666px;line-height:1.25;font-family:'MiSans VF';-inkscape-font-specification:'MiSans VF';display:none;fill:#586069;fill-opacity:1;stroke-width:0.265;stroke-dasharray:none"
       x="65.379723"
       y="47.104095"
       id="text6"
       inkscape:label="审了（灰）"><tspan
         sodipodi:role="line"
         id="tspan6"
         style="font-size:33.8666px;fill:#586069;fill-opacity:1;stroke-width:0.265;stroke-dasharray:none"
         x="65.379723"
         y="47.104095">审了</tspan></text><text
       xml:space="preserve"
       style="font-size:33.8666px;line-height:1.25;font-family:'MiSans VF';-inkscape-font-specification:'MiSans VF';display:none;fill:#586069;fill-opacity:1;stroke-width:0.265;stroke-dasharray:none"
       x="65.379723"
       y="47.104095"
       id="text7"
       inkscape:label="推了"><tspan
         sodipodi:role="line"
         id="tspan7"
         style="font-size:33.8666px;fill:#586069;fill-opacity:1;stroke-width:0.265;stroke-dasharray:none"
         x="65.379723"
         y="47.104095">推了</tspan></text><text
       xml:space="preserve"
       style="font-style:normal;font-variant:normal;font-weight:normal;font-stretch:normal;font-size:33.8666px;line-height:1.25;font-family:'MiSans VF';-inkscape-font-specification:'MiSans VF, Normal';font-variant-ligatures:normal;font-variant-caps:normal;font-variant-numeric:normal;font-variant-east-asian:normal;display:none;fill:#2cbe4e;fill-opacity:1;stroke-width:0.265;stroke-dasharray:none"
       x="65.379723"
       y="47.104095"
       id="text9"
       inkscape:label="盖了"><tspan
         sodipodi:role="line"
         id="tspan9"
         x="65.379723"
         y="47.104095">盖了</tspan></text><text
       xml:space="preserve"
       style="font-style:normal;font-variant:normal;font-weight:normal;font-stretch:normal;font-size:33.8666px;line-height:1.25;font-family:'MiSans VF';-inkscape-font-specification:'MiSans VF, Normal';font-variant-ligatures:normal;font-variant-caps:normal;font-variant-numeric:normal;font-variant-east-asian:normal;display:none;fill:#2cbe4e;fill-opacity:1;stroke-width:0.265;stroke-dasharray:none"
       x="65.379723"
       y="47.104095"
       id="text1"
       inkscape:label="放了"><tspan
         sodipodi:role="line"
         id="tspan3"
         x="0"
         y="0">放了</tspan></text><text
       xml:space="preserve"
       style="font-style:normal;font-variant:normal;font-weight:normal;font-stretch:normal;font-size:33.8666px;line-height:1.25;font-family:'MiSans VF';-inkscape-font-specification:'MiSans VF, Normal';font-variant-ligatures:normal;font-variant-caps:normal;font-variant-numeric:normal;font-variant-east-asian:normal;display:none;fill:#2cbe4e;fill-opacity:1;stroke-width:0.265;stroke-dasharray:none"
       x="65.379723"
       y="47.104095"
       id="text10"
       inkscape:label="活了"><tspan
         sodipodi:role="line"
         id="tspan10"
         x="65.379723"
         y="47.104095">活了</tspan></text><text
       xml:space="preserve"
       style="font-style:normal;font-variant:normal;font-weight:normal;font-stretch:normal;font-size:33.8666px;line-height:1.25;font-family:'MiSans VF';-inkscape-font-specification:'MiSans VF, Normal';font-variant-ligatures:normal;font-variant-caps:normal;font-variant-numeric:normal;font-variant-east-asian:normal;display:none;fill:#cb2431;fill-opacity:1;stroke-width:0.265;stroke-dasharray:none"
       x="65.379723"
       y="47.104095"
       id="text11"
       inkscape:label="炸了"><tspan
         sodipodi:role="line"
         id="tspan11"
         x="65.379723"
         y="47.104095">炸了</tspan></text><text
       xml:space="preserve"
       style="font-style:normal;font-variant:normal;font-weight:normal;font-stretch:normal;font-size:33.8666px;line-height:1.25;font-family:'MiSans VF';-inkscape-font-specification:'MiSans VF, Normal';font-variant-ligatures:normal;font-variant-caps:normal;font-variant-numeric:normal;font-variant-east-asian:normal;display:none;fill:#cb2431;fill-opacity:1;stroke-width:0.265;stroke-dasharray:none"
       x="65.379723"
       y="47.104095"
       id="text14"
       inkscape:label="爱了"><tspan
         sodipodi:role="line"
         id="tspan14"
         x="65.379723"
         y="47.104095">爱了</tspan></text><text
       xml:space="preserve"
       style="font-style:normal;font-variant:normal;font-weight:normal;font-stretch:normal;font-size:33.8666px;line-height:1.25;font-family:'MiSans VF';-inkscape-font-specification:'MiSans VF, Normal';font-variant-ligatures:normal;font-variant-caps:normal;font-variant-numeric:normal;font-variant-east-asian:normal;display:inline;fill:#586069;fill-opacity:1;stroke-width:0.265;stroke-dasharray:none"
       x="65.379723"
       y="47.104095"
       id="text15"
       inkscape:label="坏了"><tspan
         sodipodi:role="line"
         id="tspan15"
         x="0"
         y="0">坏了</tspan></text><text
       xml:space="preserve"
       style="font-style:normal;font-variant:normal;font-weight:normal;font-stretch:normal;font-size:33.8666px;line-height:1.25;font-family:'MiSans VF';-inkscape-font-specification:'MiSans VF, Normal';font-variant-ligatures:normal;font-variant-caps:normal;font-variant-numeric:normal;font-variant-east-asian:normal;display:inline;fill:#586069;fill-opacity:1;stroke-width:0.265;stroke-dasharray:none"
       x="65.379723"
       y="47.104095"
       id="text16"
       inkscape:label="鸽了"><tspan
         sodipodi:role="line"
         id="tspan16"
         x="65.379723"
         y="47.104095">鸽了</tspan></text></g><g
     id="g4"
     inkscape:label="image"
     transform="matrix(0.75,0,0,0.75,7.9375,8.4666663)"
     style="display:inline"><image
       width="50.799999"
       height="50.799999"
       preserveAspectRatio="none"
       xlink:href="../slack-github-emoji/png/opened.png"
       id="image8"
       x="6.3499999"
       y="8.4666672"
       inkscape:label="opened"
       style="display:none" /><image
       width="50.799999"
       height="50.799999"
       preserveAspectRatio="none"
       xlink:href="../slack-github-emoji/png/closed.png"
       id="image2"
       x="6.3499999"
       y="8.4666672"
       inkscape:label="closed"
       style="display:none" /><image
       width="50.799999"
       height="50.799999"
       preserveAspectRatio="none"
       xlink:href="../slack-github-emoji/png/merged.png"
       id="image4"
       x="6.3499999"
       y="8.4666672"
       inkscape:label="merged"
       style="display:none" /><image
       width="50.799999"
       height="50.799999"
       preserveAspectRatio="none"
       xlink:href="../slack-github-emoji/png/requested-changes.png"
       id="image5"
       x="6.3499999"
       y="8.4666672"
       inkscape:label="requested changes"
       style="display:none" /><image
       width="50.799999"
       height="50.799999"
       preserveAspectRatio="none"
       xlink:href="../slack-github-emoji/png/reviewed.png"
       id="image6"
       x="6.3499999"
       y="8.4666672"
       inkscape:label="reviewed"
       style="display:none" /><image
       width="50.799999"
       height="50.799999"
       preserveAspectRatio="none"
       xlink:href="../slack-github-emoji/png/pushed.png"
       id="image7"
       x="6.3499999"
       y="8.4666672"
       inkscape:label="pushed"
       style="display:none" /><image
       width="50.799999"
       height="50.799999"
       preserveAspectRatio="none"
       xlink:href="../slack-github-emoji/png/approved.png"
       id="image1"
       x="6.3499999"
       y="8.4666672"
       inkscape:label="approved"
       style="display:none" /><path
       d="M 6.35,33.866671 C 6.35,19.838941 17.722274,8.4666667 31.750004,8.4666667 45.77773,8.4666667 57.15,19.838941 57.15,33.866671 57.15,47.894393 45.77773,59.266667 31.750004,59.266667 17.722274,59.266667 6.35,47.894393 6.35,33.866671 Z m 37.59201,-6.28073 a 1.7341273,1.7341273 0 0 0 -0.0419,-2.406074 1.7341273,1.7341273 0 0 0 -2.40607,-0.04189 L 27.708771,38.923245 22.005314,33.219788 a 1.7341273,1.7341273 0 0 0 -2.406074,0.04189 1.7341273,1.7341273 0 0 0 -0.04189,2.406075 l 6.927273,6.927273 a 1.7318183,1.7318183 0 0 0 2.447634,0 z"
       id="path1"
       style="display:none;fill:#2cbe4e;fill-opacity:1;stroke-width:2.30909"
       inkscape:label="check" /><path
       d="M 6.35,33.866671 C 6.35,19.838941 17.722274,8.4666669 31.750004,8.4666669 45.77773,8.4666669 57.15,19.838941 57.15,33.866671 57.15,47.894393 45.77773,59.266667 31.750004,59.266667 17.722274,59.266667 6.35,47.894393 6.35,33.866671 Z m 18.555859,-9.291788 a 1.7341273,1.7341273 0 0 0 -2.406075,0.04189 1.7341273,1.7341273 0 0 0 -0.04189,2.406073 l 6.841815,6.844172 -6.841842,6.841834 a 1.7295093,1.7295093 0 0 0 0.752728,2.944093 1.7295093,1.7295093 0 0 0 1.69488,-0.496495 l 6.844146,-6.841832 6.841832,6.844146 a 1.7318183,1.7318183 0 0 0 2.450332,-2.447949 l -6.841842,-6.844146 6.841842,-6.844145 a 1.7295093,1.7295093 0 0 0 -0.75273,-2.944094 1.7295093,1.7295093 0 0 0 -1.69487,0.496495 l -6.844146,6.841842 z"
       id="path11"
       style="display:none;fill:#cb2431;fill-opacity:1;stroke-width:2.30909"
       inkscape:label="x" /><path
       d="m 31.749995,57.171165 -3.682992,-3.3528 C 14.985996,41.956567 6.35,34.107973 6.35,24.532165 c 0,-7.848595 6.146803,-13.969996 13.969996,-13.969996 4.419599,0 8.661407,2.057405 11.429999,5.283197 2.768601,-3.225792 7.0104,-5.283197 11.429999,-5.283197 7.823203,0 13.970006,6.121401 13.970006,13.969996 0,9.575808 -8.636006,17.424402 -21.717004,29.2862 z"
       id="path1-2"
       style="display:none;fill:#cb2431;fill-opacity:1;stroke-width:2.54"
       inkscape:label="heart" /><g
       id="g15"
       inkscape:label="bad"
       transform="translate(-4.8962801,-7.8449609)"
       style="display:none"><path
         style="fill:none;stroke:#586069;stroke-width:4.23333;stroke-linecap:round;stroke-linejoin:miter;stroke-dasharray:none;stroke-opacity:1"
         d="M 19.463731,53.896218 C 25.501085,62.943797 53.828832,50.28443 53.828832,50.28443"
         id="path15"
         inkscape:label="smile" /><path
         d="m 25.855093,43.582555 h -6.477259 c -3.497719,0 -6.563627,-2.720449 -6.995439,-6.174992 l -1.079546,-6.455666 c -0.237465,-1.835225 0.280715,-3.562488 1.403405,-4.814764 1.12273,-1.252267 2.763633,-1.986354 4.512489,-1.986354 H 30.17326 c 1.792048,0 3.411357,0.755647 4.447717,2.072723 0.23747,0.323884 0.45339,0.66931 0.62614,1.057946 0.92841,-0.194298 1.87841,-0.194298 2.78523,0 0.17275,-0.388677 0.38859,-0.734103 0.64768,-1.057946 1.01477,-1.317044 2.63408,-2.072723 4.44772,-2.072723 h 12.95451 c 1.74887,0 3.38977,0.734103 4.51249,1.986354 1.10114,1.252276 1.61932,2.979539 1.40342,4.728403 l -1.10114,6.628396 c -0.41022,3.368174 -3.49772,6.088623 -6.97385,6.088623 h -6.47726 c -3.36817,0 -6.64999,-2.569319 -7.47043,-5.829533 l -1.94318,-5.851125 c -0.82046,-0.604516 -1.96477,-0.604516 -2.78523,0 l -1.98635,6.002255 c -0.77727,3.130676 -4.037493,5.678403 -7.405667,5.678403 z"
         id="path1-7"
         style="fill:#586069;fill-opacity:1;stroke-width:2.15908"
         inkscape:label="sunglasses" /></g><path
       d="m 6.350002,33.876747 a 25.4,25.4 0 1 1 50.799996,0 25.4,25.4 0 0 1 -50.799996,0 z m 23.018748,7.937496 c 0,-2.51778 -1.673232,-4.641852 -3.968748,-5.327652 V 30.473139 A 5.5625999,5.5625999 0 0 0 23.812498,19.589248 5.5562499,5.5562499 0 0 0 22.224994,30.473139 v 6.013452 a 5.5625999,5.5625999 0 0 0 1.587504,10.883904 5.5562499,5.5562499 0 0 0 5.556252,-5.556252 z m 10.318752,5.556252 a 5.5562499,5.5562499 0 1 0 0.0032,-11.109324 5.5562499,5.5562499 0 0 0 -0.0032,11.109324 z m 0,-14.2875 a 2.38125,2.38125 0 1 0 0,-4.7625 2.38125,2.38125 0 0 0 0,4.7625 z m 2.381244,-10.318751 a 2.38125,2.38125 0 1 0 -4.7625,0 2.38125,2.38125 0 0 0 4.7625,0 z"
       id="path1-1"
       style="display:inline;stroke-width:3.175;fill:#586069;fill-opacity:1"
       inkscape:label="pull request draft" /></g></svg>
