<?xml version="1.0" encoding="UTF-8" standalone="no"?>
<!-- Created with Inkscape (http://www.inkscape.org/) -->

<svg
   width="512"
   height="256"
   viewBox="0 0 135.46666 67.733333"
   version="1.1"
   id="svg1"
   inkscape:version="1.3.2 (091e20ef0f, 2023-11-25)"
   sodipodi:docname="了.svg"
   xml:space="preserve"
   inkscape:export-filename="发了.png"
   inkscape:export-xdpi="96"
   inkscape:export-ydpi="96"
   xmlns:inkscape="http://www.inkscape.org/namespaces/inkscape"
   xmlns:sodipodi="http://sodipodi.sourceforge.net/DTD/sodipodi-0.dtd"
   xmlns:xlink="http://www.w3.org/1999/xlink"
   xmlns="http://www.w3.org/2000/svg"
   xmlns:svg="http://www.w3.org/2000/svg"
   xmlns:rdf="http://www.w3.org/1999/02/22-rdf-syntax-ns#"
   xmlns:cc="http://creativecommons.org/ns#"
   xmlns:dc="http://purl.org/dc/elements/1.1/"><defs
     id="defs1"><inkscape:path-effect
       effect="fillet_chamfer"
       id="path-effect1"
       is_visible="true"
       lpeversion="1"
       nodesatellites_param="F,0,0,1,0,15,0,1 @ F,0,0,1,0,15,0,1 @ F,0,0,1,0,15,0,1 @ F,0,0,1,0,15,0,1"
       radius="0"
       unit="px"
       method="auto"
       mode="F"
       chamfer_steps="1"
       flexible="false"
       use_knot_distance="true"
       apply_no_radius="true"
       apply_with_radius="true"
       only_selected="false"
       hide_knots="false" /></defs><sodipodi:namedview
     id="base"
     pagecolor="#ffffff"
     bordercolor="#000000"
     borderopacity="0.3"
     inkscape:pageopacity="0.0"
     inkscape:pageshadow="2"
     inkscape:zoom="1.1413743"
     inkscape:cx="181.79838"
     inkscape:cy="70.090942"
     inkscape:document-units="px"
     inkscape:showpageshadow="0"
     inkscape:pagecheckerboard="1"
     inkscape:deskcolor="#d1d1d1"
     inkscape:window-width="1900"
     inkscape:window-height="998"
     inkscape:window-x="0"
     inkscape:window-y="0"
     inkscape:window-maximized="1"
     inkscape:current-layer="svg1" /><metadata
     id="metadata1"><rdf:RDF><cc:Work
         rdf:about=""><dc:format>image/svg+xml</dc:format><dc:type
           rdf:resource="http://purl.org/dc/dcmitype/StillImage" /></cc:Work></rdf:RDF></metadata><path
     style="fill:#ffffff;stroke-width:0.167"
     id="rect1"
     width="135.46666"
     height="67.73333"
     x="0"
     y="0"
     inkscape:path-effect="#path-effect1"
     sodipodi:type="rect"
     d="m 15,0 h 105.46666 a 15,15 45 0 1 15,15 v 37.73333 a 15,15 135 0 1 -15,15 H 15 a 15,15 45 0 1 -15,-15 V 15 A 15,15 135 0 1 15,0 Z" /><g
     id="g3"
     inkscape:label="text"
     style="display:inline"
     transform="translate(-6.3499972)"><text
       xml:space="preserve"
       style="font-style:normal;font-variant:normal;font-weight:normal;font-stretch:normal;font-size:33.8666px;line-height:1.25;font-family:'MiSans VF';-inkscape-font-specification:'MiSans VF, Normal';font-variant-ligatures:normal;font-variant-caps:normal;font-variant-numeric:normal;font-variant-east-asian:normal;display:none;fill:#2cbe4e;fill-opacity:1;stroke-width:0.265;stroke-dasharray:none"
       x="65.379723"
       y="47.104095"
       id="text8"
       inkscape:label="开了"><tspan
         sodipodi:role="line"
         id="tspan8"
         x="65.379723"
         y="47.104095">开了</tspan></text><text
       xml:space="preserve"
       style="font-size:33.8666px;line-height:1.25;font-family:'MiSans VF';-inkscape-font-specification:'MiSans VF';display:none;fill:#cb2431;fill-opacity:1;stroke-width:0.265;stroke-dasharray:none"
       x="65.379723"
       y="47.104095"
       id="text2"
       inkscape:label="关了"><tspan
         sodipodi:role="line"
         id="tspan2"
         style="font-size:33.8666px;fill:#cb2431;fill-opacity:1;stroke-width:0.265;stroke-dasharray:none"
         x="65.379723"
         y="47.104095">关了</tspan></text><text
       xml:space="preserve"
       style="font-size:33.8666px;line-height:1.25;font-family:'MiSans VF';-inkscape-font-specification:'MiSans VF';display:none;fill:#6f42c1;fill-opacity:1;stroke-width:0.265;stroke-dasharray:none"
       x="65.379723"
       y="47.104095"
       id="text4"
       inkscape:label="合了"><tspan
         sodipodi:role="line"
         id="tspan4"
         style="font-size:33.8666px;fill:#6f42c1;fill-opacity:1;stroke-width:0.265;stroke-dasharray:none"
         x="65.379723"
         y="47.104095">合了</tspan></text><text
       xml:space="preserve"
       style="font-size:33.8666px;line-height:1.25;font-family:'MiSans VF';-inkscape-font-specification:'MiSans VF';display:none;fill:#cb2431;fill-opacity:1;stroke-width:0.265;stroke-dasharray:none"
       x="65.379723"
       y="47.104095"
       id="text5"
       inkscape:label="审了（红）"><tspan
         sodipodi:role="line"
         id="tspan5"
         style="font-size:33.8666px;fill:#cb2431;fill-opacity:1;stroke-width:0.265;stroke-dasharray:none"
         x="65.379723"
         y="47.104095">审了</tspan></text><text
       xml:space="preserve"
       style="font-size:33.8666px;line-height:1.25;font-family:'MiSans VF';-inkscape-font-specification:'MiSans VF';display:none;fill:#586069;fill-opacity:1;stroke-width:0.265;stroke-dasharray:none"
       x="65.379723"
       y="47.104095"
       id="text6"
       inkscape:label="审了（灰）"><tspan
         sodipodi:role="line"
         id="tspan6"
         style="font-size:33.8666px;fill:#586069;fill-opacity:1;stroke-width:0.265;stroke-dasharray:none"
         x="65.379723"
         y="47.104095">审了</tspan></text><text
       xml:space="preserve"
       style="font-size:33.8666px;line-height:1.25;font-family:'MiSans VF';-inkscape-font-specification:'MiSans VF';display:none;fill:#586069;fill-opacity:1;stroke-width:0.265;stroke-dasharray:none"
       x="65.379723"
       y="47.104095"
       id="text7"
       inkscape:label="推了"><tspan
         sodipodi:role="line"
         id="tspan7"
         style="font-size:33.8666px;fill:#586069;fill-opacity:1;stroke-width:0.265;stroke-dasharray:none"
         x="65.379723"
         y="47.104095">推了</tspan></text><text
       xml:space="preserve"
       style="font-style:normal;font-variant:normal;font-weight:normal;font-stretch:normal;font-size:33.8666px;line-height:1.25;font-family:'MiSans VF';-inkscape-font-specification:'MiSans VF, Normal';font-variant-ligatures:normal;font-variant-caps:normal;font-variant-numeric:normal;font-variant-east-asian:normal;display:none;fill:#2cbe4e;fill-opacity:1;stroke-width:0.265;stroke-dasharray:none"
       x="65.379723"
       y="47.104095"
       id="text9"
       inkscape:label="盖了"><tspan
         sodipodi:role="line"
         id="tspan9"
         x="65.379723"
         y="47.104095">盖了</tspan></text><text
       xml:space="preserve"
       style="font-style:normal;font-variant:normal;font-weight:normal;font-stretch:normal;font-size:33.8666px;line-height:1.25;font-family:'MiSans VF';-inkscape-font-specification:'MiSans VF, Normal';font-variant-ligatures:normal;font-variant-caps:normal;font-variant-numeric:normal;font-variant-east-asian:normal;display:none;fill:#2cbe4e;fill-opacity:1;stroke-width:0.265;stroke-dasharray:none"
       x="65.379723"
       y="47.104095"
       id="text1"
       inkscape:label="放了"><tspan
         sodipodi:role="line"
         id="tspan3"
         x="0"
         y="0">放了</tspan></text><text
       xml:space="preserve"
       style="font-style:normal;font-variant:normal;font-weight:normal;font-stretch:normal;font-size:33.8666px;line-height:1.25;font-family:'MiSans VF';-inkscape-font-specification:'MiSans VF, Normal';font-variant-ligatures:normal;font-variant-caps:normal;font-variant-numeric:normal;font-variant-east-asian:normal;display:none;fill:#2cbe4e;fill-opacity:1;stroke-width:0.265;stroke-dasharray:none"
       x="65.379723"
       y="47.104095"
       id="text10"
       inkscape:label="活了"><tspan
         sodipodi:role="line"
         id="tspan10"
         x="65.379723"
         y="47.104095">活了</tspan></text><text
       xml:space="preserve"
       style="font-style:normal;font-variant:normal;font-weight:normal;font-stretch:normal;font-size:33.8666px;line-height:1.25;font-family:'MiSans VF';-inkscape-font-specification:'MiSans VF, Normal';font-variant-ligatures:normal;font-variant-caps:normal;font-variant-numeric:normal;font-variant-east-asian:normal;display:none;fill:#cb2431;fill-opacity:1;stroke-width:0.265;stroke-dasharray:none"
       x="65.379723"
       y="47.104095"
       id="text11"
       inkscape:label="炸了"><tspan
         sodipodi:role="line"
         id="tspan11"
         x="65.379723"
         y="47.104095">炸了</tspan></text><text
       xml:space="preserve"
       style="font-style:normal;font-variant:normal;font-weight:normal;font-stretch:normal;font-size:33.8666px;line-height:1.25;font-family:'MiSans VF';-inkscape-font-specification:'MiSans VF, Normal';font-variant-ligatures:normal;font-variant-caps:normal;font-variant-numeric:normal;font-variant-east-asian:normal;display:none;fill:#cb2431;fill-opacity:1;stroke-width:0.265;stroke-dasharray:none"
       x="65.379723"
       y="47.104095"
       id="text14"
       inkscape:label="爱了"><tspan
         sodipodi:role="line"
         id="tspan14"
         x="65.379723"
         y="47.104095">爱了</tspan></text><text
       xml:space="preserve"
       style="font-style:normal;font-variant:normal;font-weight:normal;font-stretch:normal;font-size:33.8666px;line-height:1.25;font-family:'MiSans VF';-inkscape-font-specification:'MiSans VF, Normal';font-variant-ligatures:normal;font-variant-caps:normal;font-variant-numeric:normal;font-variant-east-asian:normal;display:none;fill:#586069;fill-opacity:1;stroke-width:0.265;stroke-dasharray:none"
       x="65.379723"
       y="47.104095"
       id="text15"
       inkscape:label="坏了"><tspan
         sodipodi:role="line"
         id="tspan15"
         x="65.379723"
         y="47.104095">坏了</tspan></text><text
       xml:space="preserve"
       style="font-style:normal;font-variant:normal;font-weight:normal;font-stretch:normal;font-size:33.8666px;line-height:1.25;font-family:'MiSans VF';-inkscape-font-specification:'MiSans VF, Normal';font-variant-ligatures:normal;font-variant-caps:normal;font-variant-numeric:normal;font-variant-east-asian:normal;display:none;fill:#586069;fill-opacity:1;stroke-width:0.265;stroke-dasharray:none"
       x="65.379723"
       y="47.104095"
       id="text16"
       inkscape:label="鸽了"><tspan
         sodipodi:role="line"
         id="tspan16"
         x="65.379723"
         y="47.104095">鸽了</tspan></text><text
       xml:space="preserve"
       style="font-style:normal;font-variant:normal;font-weight:normal;font-stretch:normal;font-size:33.8666px;line-height:1.25;font-family:'MiSans VF';-inkscape-font-specification:'MiSans VF, Normal';font-variant-ligatures:normal;font-variant-caps:normal;font-variant-numeric:normal;font-variant-east-asian:normal;display:none;fill:#2cbe4e;fill-opacity:1;stroke-width:0.265;stroke-dasharray:none"
       x="65.379723"
       y="47.104095"
       id="text3"
       inkscape:label="打了"><tspan
         sodipodi:role="line"
         id="tspan1"
         x="65.379723"
         y="47.104095">打了</tspan></text><text
       xml:space="preserve"
       style="font-style:normal;font-variant:normal;font-weight:normal;font-stretch:normal;font-size:33.8666px;line-height:1.25;font-family:'MiSans VF';-inkscape-font-specification:'MiSans VF, Normal';font-variant-ligatures:normal;font-variant-caps:normal;font-variant-numeric:normal;font-variant-east-asian:normal;display:none;fill:#2cbe4e;fill-opacity:1;stroke-width:0.265;stroke-dasharray:none"
       x="65.379723"
       y="47.104095"
       id="text13"
       inkscape:label="加了"><tspan
         sodipodi:role="line"
         id="tspan13"
         x="65.379723"
         y="47.104095">加了</tspan></text><text
       xml:space="preserve"
       style="font-style:normal;font-variant:normal;font-weight:normal;font-stretch:normal;font-size:33.8666px;line-height:1.25;font-family:'MiSans VF';-inkscape-font-specification:'MiSans VF, Normal';font-variant-ligatures:normal;font-variant-caps:normal;font-variant-numeric:normal;font-variant-east-asian:normal;display:none;fill:#2cbe4e;fill-opacity:1;stroke-width:0.265;stroke-dasharray:none"
       x="65.379723"
       y="47.104095"
       id="text17"
       inkscape:label="更了"><tspan
         sodipodi:role="line"
         id="tspan17"
         x="65.379723"
         y="47.104095">更了</tspan></text><text
       xml:space="preserve"
       style="font-size:33.8666px;line-height:1.25;font-family:'MiSans VF';-inkscape-font-specification:'MiSans VF';display:none;fill:#586069;fill-opacity:1;stroke-width:0.265;stroke-dasharray:none"
       x="65.379723"
       y="47.104095"
       id="text12"
       inkscape:label="排了"><tspan
         sodipodi:role="line"
         id="tspan12"
         style="font-size:33.8666px;fill:#586069;fill-opacity:1;stroke-width:0.265;stroke-dasharray:none"
         x="65.379723"
         y="47.104095">排了</tspan></text><text
       xml:space="preserve"
       style="font-size:33.8666px;line-height:1.25;font-family:'MiSans VF';-inkscape-font-specification:'MiSans VF';display:none;fill:#fac905;fill-opacity:1;stroke-width:0.265;stroke-dasharray:none"
       x="65.379723"
       y="47.104095"
       id="text18"
       inkscape:label="成了"><tspan
         sodipodi:role="line"
         id="tspan18"
         style="font-size:33.8666px;fill:#fac905;fill-opacity:1;stroke-width:0.265;stroke-dasharray:none"
         x="65.379723"
         y="47.104095">成了</tspan></text><text
       xml:space="preserve"
       style="font-style:normal;font-variant:normal;font-weight:normal;font-stretch:normal;font-size:33.8666px;line-height:1.25;font-family:'MiSans VF';-inkscape-font-specification:'MiSans VF, Normal';font-variant-ligatures:normal;font-variant-caps:normal;font-variant-numeric:normal;font-variant-east-asian:normal;display:none;fill:#2cbe4e;fill-opacity:1;stroke-width:0.265;stroke-dasharray:none"
       x="65.379723"
       y="47.104095"
       id="text19"
       inkscape:label="测了"><tspan
         sodipodi:role="line"
         id="tspan19"
         x="65.379723"
         y="47.104095">测了</tspan></text><text
       xml:space="preserve"
       style="font-style:normal;font-variant:normal;font-weight:normal;font-stretch:normal;font-size:33.8666px;line-height:1.25;font-family:'MiSans VF';-inkscape-font-specification:'MiSans VF, Normal';font-variant-ligatures:normal;font-variant-caps:normal;font-variant-numeric:normal;font-variant-east-asian:normal;display:inline;fill:#2cbe4e;fill-opacity:1;stroke-width:0.265;stroke-dasharray:none"
       x="65.379723"
       y="47.104095"
       id="text20"
       inkscape:label="测了"><tspan
         sodipodi:role="line"
         id="tspan20"
         x="65.379723"
         y="47.104095">发了</tspan></text></g><g
     id="g4"
     inkscape:label="image"
     transform="matrix(0.75,0,0,0.75,7.9375,8.4666663)"
     style="display:inline"><image
       width="50.799999"
       height="50.799999"
       preserveAspectRatio="none"
       xlink:href="../slack-github-emoji/png/opened.png"
       id="image8"
       x="6.3499999"
       y="8.4666672"
       inkscape:label="opened"
       style="display:none" /><image
       width="50.799999"
       height="50.799999"
       preserveAspectRatio="none"
       xlink:href="../slack-github-emoji/png/closed.png"
       id="image2"
       x="6.3499999"
       y="8.4666672"
       inkscape:label="closed"
       style="display:none" /><image
       width="50.799999"
       height="50.799999"
       preserveAspectRatio="none"
       xlink:href="../slack-github-emoji/png/merged.png"
       id="image4"
       x="6.3499999"
       y="8.4666672"
       inkscape:label="merged"
       style="display:none" /><image
       width="50.799999"
       height="50.799999"
       preserveAspectRatio="none"
       xlink:href="../slack-github-emoji/png/requested-changes.png"
       id="image5"
       x="6.3499999"
       y="8.4666672"
       inkscape:label="requested changes"
       style="display:none" /><image
       width="50.799999"
       height="50.799999"
       preserveAspectRatio="none"
       xlink:href="../slack-github-emoji/png/reviewed.png"
       id="image6"
       x="6.3499999"
       y="8.4666672"
       inkscape:label="reviewed"
       style="display:none" /><image
       width="50.799999"
       height="50.799999"
       preserveAspectRatio="none"
       xlink:href="../slack-github-emoji/png/pushed.png"
       id="image7"
       x="6.3499999"
       y="8.4666672"
       inkscape:label="pushed"
       style="display:none" /><image
       width="50.799999"
       height="50.799999"
       preserveAspectRatio="none"
       xlink:href="../slack-github-emoji/png/approved.png"
       id="image1"
       x="6.3499999"
       y="8.4666672"
       inkscape:label="approved"
       style="display:none" /><path
       d="M 6.35,33.866671 C 6.35,19.838941 17.722274,8.4666667 31.750004,8.4666667 45.77773,8.4666667 57.15,19.838941 57.15,33.866671 57.15,47.894393 45.77773,59.266667 31.750004,59.266667 17.722274,59.266667 6.35,47.894393 6.35,33.866671 Z m 37.59201,-6.28073 a 1.7341273,1.7341273 0 0 0 -0.0419,-2.406074 1.7341273,1.7341273 0 0 0 -2.40607,-0.04189 L 27.708771,38.923245 22.005314,33.219788 a 1.7341273,1.7341273 0 0 0 -2.406074,0.04189 1.7341273,1.7341273 0 0 0 -0.04189,2.406075 l 6.927273,6.927273 a 1.7318183,1.7318183 0 0 0 2.447634,0 z"
       id="path1"
       style="display:none;fill:#2cbe4e;fill-opacity:1;stroke-width:2.30909"
       inkscape:label="check" /><path
       d="M 6.35,33.866671 C 6.35,19.838941 17.722274,8.4666669 31.750004,8.4666669 45.77773,8.4666669 57.15,19.838941 57.15,33.866671 57.15,47.894393 45.77773,59.266667 31.750004,59.266667 17.722274,59.266667 6.35,47.894393 6.35,33.866671 Z m 18.555859,-9.291788 a 1.7341273,1.7341273 0 0 0 -2.406075,0.04189 1.7341273,1.7341273 0 0 0 -0.04189,2.406073 l 6.841815,6.844172 -6.841842,6.841834 a 1.7295093,1.7295093 0 0 0 0.752728,2.944093 1.7295093,1.7295093 0 0 0 1.69488,-0.496495 l 6.844146,-6.841832 6.841832,6.844146 a 1.7318183,1.7318183 0 0 0 2.450332,-2.447949 l -6.841842,-6.844146 6.841842,-6.844145 a 1.7295093,1.7295093 0 0 0 -0.75273,-2.944094 1.7295093,1.7295093 0 0 0 -1.69487,0.496495 l -6.844146,6.841842 z"
       id="path11"
       style="display:none;fill:#cb2431;fill-opacity:1;stroke-width:2.30909"
       inkscape:label="x" /><path
       d="m 31.749995,57.171165 -3.682992,-3.3528 C 14.985996,41.956567 6.35,34.107973 6.35,24.532165 c 0,-7.848595 6.146803,-13.969996 13.969996,-13.969996 4.419599,0 8.661407,2.057405 11.429999,5.283197 2.768601,-3.225792 7.0104,-5.283197 11.429999,-5.283197 7.823203,0 13.970006,6.121401 13.970006,13.969996 0,9.575808 -8.636006,17.424402 -21.717004,29.2862 z"
       id="path1-2"
       style="display:none;fill:#cb2431;fill-opacity:1;stroke-width:2.54"
       inkscape:label="heart" /><g
       id="g15"
       inkscape:label="bad"
       transform="translate(-4.8962801,-7.8449609)"
       style="display:none"><path
         style="fill:none;stroke:#586069;stroke-width:4.23333;stroke-linecap:round;stroke-linejoin:miter;stroke-dasharray:none;stroke-opacity:1"
         d="M 19.463731,53.896218 C 25.501085,62.943797 53.828832,50.28443 53.828832,50.28443"
         id="path15"
         inkscape:label="smile" /><path
         d="m 25.855093,43.582555 h -6.477259 c -3.497719,0 -6.563627,-2.720449 -6.995439,-6.174992 l -1.079546,-6.455666 c -0.237465,-1.835225 0.280715,-3.562488 1.403405,-4.814764 1.12273,-1.252267 2.763633,-1.986354 4.512489,-1.986354 H 30.17326 c 1.792048,0 3.411357,0.755647 4.447717,2.072723 0.23747,0.323884 0.45339,0.66931 0.62614,1.057946 0.92841,-0.194298 1.87841,-0.194298 2.78523,0 0.17275,-0.388677 0.38859,-0.734103 0.64768,-1.057946 1.01477,-1.317044 2.63408,-2.072723 4.44772,-2.072723 h 12.95451 c 1.74887,0 3.38977,0.734103 4.51249,1.986354 1.10114,1.252276 1.61932,2.979539 1.40342,4.728403 l -1.10114,6.628396 c -0.41022,3.368174 -3.49772,6.088623 -6.97385,6.088623 h -6.47726 c -3.36817,0 -6.64999,-2.569319 -7.47043,-5.829533 l -1.94318,-5.851125 c -0.82046,-0.604516 -1.96477,-0.604516 -2.78523,0 l -1.98635,6.002255 c -0.77727,3.130676 -4.037493,5.678403 -7.405667,5.678403 z"
         id="path1-7"
         style="fill:#586069;fill-opacity:1;stroke-width:2.15908"
         inkscape:label="sunglasses" /></g><g
       id="g19"
       inkscape:label="draft"
       style="display:none"
       transform="matrix(20.25,0,0,20.25,-445.15182,-528.53275)"><circle
         style="display:inline;fill:#e6ebf1;fill-opacity:1;stroke:none;stroke-width:4.23333;stroke-linecap:round"
         id="path19"
         cy="27.772812"
         cx="23.550707"
         r="1.254321"
         inkscape:label="draft background" /><path
         d="m 23.077984,27.075967 a 0.22401792,0.22396368 0 0 1 0.07467,0.435186 v 0.52318 a 0.22411748,0.22406322 0 1 1 -0.149346,0 v -0.52318 a 0.22411748,0.22406322 0 0 1 0.07467,-0.435186 z m 0.945854,1.393552 a 0.22401845,0.22396421 0 1 1 0,-0.447928 0.22401845,0.22396421 0 0 1 0,0.447928 z M 23.00331,27.29993 a 0.07467347,0.07465539 0 1 0 0.149346,0 0.07467347,0.07465539 0 0 0 -0.149346,0 z m 0.07468,0.870971 a 0.07467327,0.07465519 0 1 0 0,0.149309 0.07467327,0.07465519 0 0 0 0,-0.149309 z m 0.945853,0 a 0.07467327,0.07465519 0 1 0 0,0.149309 0.07467327,0.07465519 0 0 0 0,-0.149309 z m 0.12445,-0.447927 a 0.12445439,0.12442426 0 1 1 -0.248908,0 0.12445439,0.12442426 0 0 1 0.248908,0 z m 0,-0.423044 a 0.12445439,0.12442426 0 1 1 -0.248908,0 0.12445439,0.12442426 0 0 1 0.248908,0 z"
         id="path1-1"
         style="display:inline;fill:#586069;fill-opacity:1;stroke-width:0.0995516"
         inkscape:label="draft icon" /></g><path
       d="m 29.676531,7.9482829 c -0.5184,0 -1.036742,0.2592004 -1.555102,0.5183999 L 7.6459115,19.870759 C 6.8683121,20.389159 6.35,21.16668 6.35,22.203411 v 23.326531 c 0,1.036732 0.5183999,1.814283 1.2959115,2.332654 L 28.121429,59.26668 c 0.5184,0.2592 1.036731,0.5184 1.555102,0.5184 0.5184,0 1.03673,-0.2592 1.555102,-0.5184 l 2.332653,-1.29592 c -0.7776,-1.555104 -1.036742,-3.369386 -1.295922,-5.183679 V 35.421779 l 15.551017,-8.812242 v 9.848974 c 1.814289,0 3.628578,0.2592 5.183683,0.777502 V 22.203382 c 0,-1.036732 -0.518409,-1.814283 -1.295921,-2.332653 L 31.231633,8.4666542 C 30.713233,8.2074548 30.194892,7.9482543 29.676531,7.9482543 m 0,5.7020377 15.551019,8.553062 -5.183676,2.851022 -15.29184,-8.812251 4.924497,-2.591833 m -10.108164,5.442856 15.29183,9.071433 -5.183666,2.851014 -15.551021,-8.812241 5.442857,-3.110206 m -8.034701,7.516331 15.551021,8.812242 V 52.787024 L 11.533666,43.974781 V 26.609479 m 42.24694,17.106122 -9.330608,9.330612 -4.146943,-4.146945 -2.851013,3.110205 7.25714,7.775509 L 57.15,47.344165 Z"
       id="path1-12"
       style="display:none;fill:#2cbe4e;fill-opacity:1;stroke-width:2.59183"
       inkscape:label="package closed check" /><path
       d="M 44.449998,36.406664 H 34.289992 V 46.566669 H 29.209999 V 36.406664 H 19.049993 V 31.32667 H 29.209999 V 21.166664 h 5.079993 V 31.32667 H 44.449998 M 31.749995,8.4666722 A 25.399998,25.399998 0 0 0 6.35,33.866667 25.399998,25.399998 0 0 0 31.749995,59.266662 25.399998,25.399998 0 0 0 57.15,33.866667 25.399998,25.399998 0 0 0 31.749995,8.4666722 Z"
       id="path1-9"
       style="display:none;fill:#2cbe4e;fill-opacity:1;stroke-width:2.54"
       inkscape:label="plus circle" /><path
       d="M 31.750014,59.266664 A 25.399997,25.399997 0 0 1 6.3499995,33.866681 25.399997,25.399997 0 0 1 31.750014,8.4666674 25.399997,25.399997 0 0 1 57.149998,33.866681 25.399997,25.399997 0 0 1 31.750014,59.266664 m 0,-38.09999 -12.700007,12.700007 h 7.619998 V 44.026669 H 36.830001 V 33.866681 h 7.619998 z"
       id="path1-0"
       style="display:none;fill:#2cbe4e;fill-opacity:1;stroke-width:2.54"
       inkscape:label="arrow up bold circle" /><path
       d="m 13.969999,18.626664 c -2.794003,0 -5.0800035,2.285999 -5.0800035,5.080002 0,2.794003 2.2860005,5.080003 5.0800035,5.080003 2.794003,0 5.080003,-2.260598 5.080003,-5.080003 0,-2.819395 -2.260608,-5.080002 -5.080003,-5.080002 m 17.779995,-5.079993 c -2.793993,0 -5.079993,2.260598 -5.079993,5.079993 0,2.819404 2.286,5.080002 5.079993,5.080002 2.794003,0 5.080003,-2.260598 5.080003,-5.080002 0,-2.819395 -2.260598,-5.079993 -5.080003,-5.079993 M 49.529999,8.4666679 c -2.794003,0 -5.080003,2.2860001 -5.080003,5.0800031 0,2.793993 2.286,5.079993 5.080003,5.079993 2.793993,0 5.079993,-2.260599 5.079993,-5.079993 0,-2.819405 -2.260598,-5.0800031 -5.079993,-5.0800031 m -39.37,22.8599981 c -2.1081985,0 -3.8099995,1.701801 -3.8099995,3.809999 v 11.429999 h 2.539996 v 12.7 H 19.050002 v -12.7 h 2.539996 V 35.136665 c 0,-2.108198 -1.701801,-3.809999 -3.809999,-3.809999 h -7.62 m 17.779996,-5.080003 c -2.108199,0 -3.81,1.701801 -3.81,3.81 v 11.429999 h 2.540006 V 54.186664 H 36.829997 V 41.486662 h 2.539997 V 30.056663 c 0,-2.108199 -1.701802,-3.81 -3.81,-3.81 H 27.939995 M 45.719999,21.16667 c -2.108207,0 -3.809999,1.701801 -3.809999,3.81 v 11.429998 h 2.539996 V 49.106661 H 54.609992 V 36.406668 h 2.540005 V 24.97667 c 0,-2.108199 -1.7018,-3.81 -3.809998,-3.81 z"
       id="path1-3"
       style="display:none;fill:#586069;fill-opacity:1;stroke-width:2.54"
       inkscape:label="human queue" /><path
       d="M 44.449996,13.546671 V 8.4666679 H 19.050002 V 13.546671 H 6.3499995 v 17.779995 c 0,2.794003 2.286,5.080002 5.0800035,5.080002 h 7.873996 c 1.015996,4.978397 4.927602,8.889993 9.905999,9.906 v 5.537193 c -7.62,1.168406 -7.62,7.416803 -7.62,7.416803 H 41.91 c 0,0 0,-6.248397 -7.62,-7.416803 v -5.537193 c 4.978397,-1.016007 8.889993,-4.927603 9.906,-9.906 h 7.873996 c 2.794001,0 5.080001,-2.285999 5.080001,-5.080002 V 13.546671 H 44.449996 M 11.430003,31.326666 V 18.626664 h 7.619999 v 12.700002 h -7.619999 m 40.639993,0 h -7.62 V 18.626664 h 7.62 z"
       id="path1-36"
       style="display:none;fill:#fac905;fill-opacity:1;stroke-width:2.54"
       inkscape:label="trophy" /><path
       d="m 48.032047,20.632591 h -7.320408 c -1.172303,-2.084096 -2.787486,-3.907692 -4.741337,-5.21025 l 4.246361,-4.142158 -3.673226,-3.6732256 -5.65313,5.6531196 c -1.198355,-0.286523 -2.396721,-0.44288 -3.699278,-0.44288 -1.302568,0 -2.47488,0.156357 -3.673236,0.44288 l -5.679183,-5.6531196 -3.673225,3.6732256 4.220307,4.142158 c -1.953851,1.302558 -3.542971,3.152197 -4.715283,5.21025 H 6.3499995 v 5.210259 h 5.4447165 c -0.156357,0.859668 -0.234437,1.719385 -0.234437,2.605125 V 31.05311 H 6.3499995 v 5.21025 H 11.56026 v 2.605134 c 0,0.88576 0.07778,1.745428 0.234437,2.605125 H 6.3499995 v 5.210245 h 7.3204095 c 3.777437,6.51283 11.644927,9.40452 18.730869,6.9036 v -1.69334 c 0,-6.61702 4.194255,-12.504611 10.42051,-14.718971 v -0.911754 h 5.210259 v -5.21025 h -5.210259 v -2.605134 c 0,-0.88576 -0.07779,-1.745438 -0.234437,-2.605125 h 5.444726 V 20.63263 M 32.401308,41.473659 H 21.980769 v -5.21026 h 10.420509 v 5.21026 m 0,-10.42051 H 21.980769 V 25.84289 h 10.420509 v 5.210259 m 12.374361,29.073225 -7.164101,-7.81539 3.021952,-3.02194 4.142149,4.14215 9.352408,-9.35241 3.021952,3.67324 z"
       id="path1-79"
       style="display:none;fill:#2cbe4e;fill-opacity:1;stroke-width:2.60512"
       inkscape:label="bug check" /><path
       d="M 6.3741905,55.638094 57.149999,33.866666 6.3741905,12.095238 6.3499995,29.028571 42.635713,33.866666 6.3499995,38.704761 Z"
       id="path2"
       style="display:inline;fill:#2cbe4e;stroke-width:2.41905"
       inkscape:label="send" /></g></svg>
