<?xml version="1.0" encoding="UTF-8" standalone="no"?>
<!-- Created with Inkscape (http://www.inkscape.org/) -->

<svg
   width="512"
   height="256"
   viewBox="0 0 135.46666 67.733333"
   version="1.1"
   id="svg1"
   inkscape:version="1.3.2 (091e20ef0f, 2023-11-25)"
   sodipodi:docname="了.svg"
   xml:space="preserve"
   inkscape:export-filename="转了.png"
   inkscape:export-xdpi="96"
   inkscape:export-ydpi="96"
   xmlns:inkscape="http://www.inkscape.org/namespaces/inkscape"
   xmlns:sodipodi="http://sodipodi.sourceforge.net/DTD/sodipodi-0.dtd"
   xmlns:xlink="http://www.w3.org/1999/xlink"
   xmlns="http://www.w3.org/2000/svg"
   xmlns:svg="http://www.w3.org/2000/svg"
   xmlns:rdf="http://www.w3.org/1999/02/22-rdf-syntax-ns#"
   xmlns:cc="http://creativecommons.org/ns#"
   xmlns:dc="http://purl.org/dc/elements/1.1/"><defs
     id="defs1"><inkscape:path-effect
       effect="fillet_chamfer"
       id="path-effect1"
       is_visible="true"
       lpeversion="1"
       nodesatellites_param="F,0,0,1,0,15,0,1 @ F,0,0,1,0,15,0,1 @ F,0,0,1,0,15,0,1 @ F,0,0,1,0,15,0,1"
       radius="0"
       unit="px"
       method="auto"
       mode="F"
       chamfer_steps="1"
       flexible="false"
       use_knot_distance="true"
       apply_no_radius="true"
       apply_with_radius="true"
       only_selected="false"
       hide_knots="false" /><path
       id="SVGID_1_"
       d="M64,68.82c-17,0-35.33,14.18-35.33,31.67c0,4.89,5.61,7.74,10.62,5.75c7.87-3.13,16.24-4.79,24.71-4.92       c8.47,0.13,16.84,1.79,24.71,4.92c5,2,10.62-0.86,10.62-5.75C99.33,83,79.66,68.82,64,68.82z" /></defs><sodipodi:namedview
     id="base"
     pagecolor="#ffffff"
     bordercolor="#000000"
     borderopacity="0.3"
     inkscape:pageopacity="0.0"
     inkscape:pageshadow="2"
     inkscape:zoom="1.1413743"
     inkscape:cx="194.50236"
     inkscape:cy="96.375045"
     inkscape:document-units="px"
     inkscape:showpageshadow="0"
     inkscape:pagecheckerboard="1"
     inkscape:deskcolor="#d1d1d1"
     inkscape:window-width="1900"
     inkscape:window-height="998"
     inkscape:window-x="0"
     inkscape:window-y="0"
     inkscape:window-maximized="1"
     inkscape:current-layer="g3" /><metadata
     id="metadata1"><rdf:RDF><cc:Work
         rdf:about=""><dc:format>image/svg+xml</dc:format><dc:type
           rdf:resource="http://purl.org/dc/dcmitype/StillImage" /></cc:Work></rdf:RDF></metadata><path
     style="fill:#ffffff;stroke-width:0.167"
     id="rect1"
     width="135.46666"
     height="67.73333"
     x="0"
     y="0"
     inkscape:path-effect="#path-effect1"
     sodipodi:type="rect"
     d="m 15,0 h 105.46666 a 15,15 45 0 1 15,15 v 37.73333 a 15,15 135 0 1 -15,15 H 15 a 15,15 45 0 1 -15,-15 V 15 A 15,15 135 0 1 15,0 Z" /><g
     id="g3"
     inkscape:label="text"
     style="display:inline"
     transform="translate(-6.3499972)"><text
       xml:space="preserve"
       style="font-style:normal;font-variant:normal;font-weight:normal;font-stretch:normal;font-size:33.8666px;line-height:1.25;font-family:'MiSans VF';-inkscape-font-specification:'MiSans VF, Normal';font-variant-ligatures:normal;font-variant-caps:normal;font-variant-numeric:normal;font-variant-east-asian:normal;display:none;fill:#2cbe4e;fill-opacity:1;stroke-width:0.265;stroke-dasharray:none"
       x="65.379723"
       y="47.104095"
       id="text8"
       inkscape:label="开了"><tspan
         sodipodi:role="line"
         id="tspan8"
         x="65.379723"
         y="47.104095">开了</tspan></text><text
       xml:space="preserve"
       style="font-size:33.8666px;line-height:1.25;font-family:'MiSans VF';-inkscape-font-specification:'MiSans VF';display:none;fill:#cb2431;fill-opacity:1;stroke-width:0.265;stroke-dasharray:none"
       x="65.379723"
       y="47.104095"
       id="text2"
       inkscape:label="关了"><tspan
         sodipodi:role="line"
         id="tspan2"
         style="font-size:33.8666px;fill:#cb2431;fill-opacity:1;stroke-width:0.265;stroke-dasharray:none"
         x="65.379723"
         y="47.104095">关了</tspan></text><text
       xml:space="preserve"
       style="font-size:33.8666px;line-height:1.25;font-family:'MiSans VF';-inkscape-font-specification:'MiSans VF';display:none;fill:#6f42c1;fill-opacity:1;stroke-width:0.265;stroke-dasharray:none"
       x="65.379723"
       y="47.104095"
       id="text4"
       inkscape:label="合了"><tspan
         sodipodi:role="line"
         id="tspan4"
         style="font-size:33.8666px;fill:#6f42c1;fill-opacity:1;stroke-width:0.265;stroke-dasharray:none"
         x="65.379723"
         y="47.104095">合了</tspan></text><text
       xml:space="preserve"
       style="font-size:33.8666px;line-height:1.25;font-family:'MiSans VF';-inkscape-font-specification:'MiSans VF';display:none;fill:#cb2431;fill-opacity:1;stroke-width:0.265;stroke-dasharray:none"
       x="65.379723"
       y="47.104095"
       id="text5"
       inkscape:label="审了（红）"><tspan
         sodipodi:role="line"
         id="tspan5"
         style="font-size:33.8666px;fill:#cb2431;fill-opacity:1;stroke-width:0.265;stroke-dasharray:none"
         x="65.379723"
         y="47.104095">审了</tspan></text><text
       xml:space="preserve"
       style="font-size:33.8666px;line-height:1.25;font-family:'MiSans VF';-inkscape-font-specification:'MiSans VF';display:none;fill:#586069;fill-opacity:1;stroke-width:0.265;stroke-dasharray:none"
       x="65.379723"
       y="47.104095"
       id="text6"
       inkscape:label="审了（灰）"><tspan
         sodipodi:role="line"
         id="tspan6"
         style="font-size:33.8666px;fill:#586069;fill-opacity:1;stroke-width:0.265;stroke-dasharray:none"
         x="65.379723"
         y="47.104095">审了</tspan></text><text
       xml:space="preserve"
       style="font-size:33.8666px;line-height:1.25;font-family:'MiSans VF';-inkscape-font-specification:'MiSans VF';display:none;fill:#586069;fill-opacity:1;stroke-width:0.265;stroke-dasharray:none"
       x="65.379723"
       y="47.104095"
       id="text7"
       inkscape:label="推了"><tspan
         sodipodi:role="line"
         id="tspan7"
         style="font-size:33.8666px;fill:#586069;fill-opacity:1;stroke-width:0.265;stroke-dasharray:none"
         x="65.379723"
         y="47.104095">推了</tspan></text><text
       xml:space="preserve"
       style="font-style:normal;font-variant:normal;font-weight:normal;font-stretch:normal;font-size:33.8666px;line-height:1.25;font-family:'MiSans VF';-inkscape-font-specification:'MiSans VF, Normal';font-variant-ligatures:normal;font-variant-caps:normal;font-variant-numeric:normal;font-variant-east-asian:normal;display:none;fill:#2cbe4e;fill-opacity:1;stroke-width:0.265;stroke-dasharray:none"
       x="65.379723"
       y="47.104095"
       id="text9"
       inkscape:label="盖了"><tspan
         sodipodi:role="line"
         id="tspan9"
         x="65.379723"
         y="47.104095">盖了</tspan></text><text
       xml:space="preserve"
       style="font-style:normal;font-variant:normal;font-weight:normal;font-stretch:normal;font-size:33.8666px;line-height:1.25;font-family:'MiSans VF';-inkscape-font-specification:'MiSans VF, Normal';font-variant-ligatures:normal;font-variant-caps:normal;font-variant-numeric:normal;font-variant-east-asian:normal;display:none;fill:#2cbe4e;fill-opacity:1;stroke-width:0.265;stroke-dasharray:none"
       x="65.379723"
       y="47.104095"
       id="text1"
       inkscape:label="放了"><tspan
         sodipodi:role="line"
         id="tspan3"
         x="0"
         y="0">放了</tspan></text><text
       xml:space="preserve"
       style="font-style:normal;font-variant:normal;font-weight:normal;font-stretch:normal;font-size:33.8666px;line-height:1.25;font-family:'MiSans VF';-inkscape-font-specification:'MiSans VF, Normal';font-variant-ligatures:normal;font-variant-caps:normal;font-variant-numeric:normal;font-variant-east-asian:normal;display:none;fill:#2cbe4e;fill-opacity:1;stroke-width:0.265;stroke-dasharray:none"
       x="65.379723"
       y="47.104095"
       id="text10"
       inkscape:label="活了"><tspan
         sodipodi:role="line"
         id="tspan10"
         x="65.379723"
         y="47.104095">活了</tspan></text><text
       xml:space="preserve"
       style="font-style:normal;font-variant:normal;font-weight:normal;font-stretch:normal;font-size:33.8666px;line-height:1.25;font-family:'MiSans VF';-inkscape-font-specification:'MiSans VF, Normal';font-variant-ligatures:normal;font-variant-caps:normal;font-variant-numeric:normal;font-variant-east-asian:normal;display:none;fill:#cb2431;fill-opacity:1;stroke-width:0.265;stroke-dasharray:none"
       x="65.379723"
       y="47.104095"
       id="text11"
       inkscape:label="炸了"><tspan
         sodipodi:role="line"
         id="tspan11"
         x="65.379723"
         y="47.104095">炸了</tspan></text><text
       xml:space="preserve"
       style="font-style:normal;font-variant:normal;font-weight:normal;font-stretch:normal;font-size:33.8666px;line-height:1.25;font-family:'MiSans VF';-inkscape-font-specification:'MiSans VF, Normal';font-variant-ligatures:normal;font-variant-caps:normal;font-variant-numeric:normal;font-variant-east-asian:normal;display:none;fill:#cb2431;fill-opacity:1;stroke-width:0.265;stroke-dasharray:none"
       x="65.379723"
       y="47.104095"
       id="text14"
       inkscape:label="爱了"><tspan
         sodipodi:role="line"
         id="tspan14"
         x="65.379723"
         y="47.104095">爱了</tspan></text><text
       xml:space="preserve"
       style="font-style:normal;font-variant:normal;font-weight:normal;font-stretch:normal;font-size:33.8666px;line-height:1.25;font-family:'MiSans VF';-inkscape-font-specification:'MiSans VF, Normal';font-variant-ligatures:normal;font-variant-caps:normal;font-variant-numeric:normal;font-variant-east-asian:normal;display:none;fill:#586069;fill-opacity:1;stroke-width:0.265;stroke-dasharray:none"
       x="65.379723"
       y="47.104095"
       id="text15"
       inkscape:label="坏了"><tspan
         sodipodi:role="line"
         id="tspan15"
         x="65.379723"
         y="47.104095">坏了</tspan></text><text
       xml:space="preserve"
       style="font-style:normal;font-variant:normal;font-weight:normal;font-stretch:normal;font-size:33.8666px;line-height:1.25;font-family:'MiSans VF';-inkscape-font-specification:'MiSans VF, Normal';font-variant-ligatures:normal;font-variant-caps:normal;font-variant-numeric:normal;font-variant-east-asian:normal;display:none;fill:#586069;fill-opacity:1;stroke-width:0.265;stroke-dasharray:none"
       x="65.379723"
       y="47.104095"
       id="text16"
       inkscape:label="鸽了"><tspan
         sodipodi:role="line"
         id="tspan16"
         x="65.379723"
         y="47.104095">鸽了</tspan></text><text
       xml:space="preserve"
       style="font-style:normal;font-variant:normal;font-weight:normal;font-stretch:normal;font-size:33.8666px;line-height:1.25;font-family:'MiSans VF';-inkscape-font-specification:'MiSans VF, Normal';font-variant-ligatures:normal;font-variant-caps:normal;font-variant-numeric:normal;font-variant-east-asian:normal;display:none;fill:#2cbe4e;fill-opacity:1;stroke-width:0.265;stroke-dasharray:none"
       x="65.379723"
       y="47.104095"
       id="text3"
       inkscape:label="打了"><tspan
         sodipodi:role="line"
         id="tspan1"
         x="65.379723"
         y="47.104095">打了</tspan></text><text
       xml:space="preserve"
       style="font-style:normal;font-variant:normal;font-weight:normal;font-stretch:normal;font-size:33.8666px;line-height:1.25;font-family:'MiSans VF';-inkscape-font-specification:'MiSans VF, Normal';font-variant-ligatures:normal;font-variant-caps:normal;font-variant-numeric:normal;font-variant-east-asian:normal;display:none;fill:#2cbe4e;fill-opacity:1;stroke-width:0.265;stroke-dasharray:none"
       x="65.379723"
       y="47.104095"
       id="text13"
       inkscape:label="加了"><tspan
         sodipodi:role="line"
         id="tspan13"
         x="65.379723"
         y="47.104095">加了</tspan></text><text
       xml:space="preserve"
       style="font-style:normal;font-variant:normal;font-weight:normal;font-stretch:normal;font-size:33.8666px;line-height:1.25;font-family:'MiSans VF';-inkscape-font-specification:'MiSans VF, Normal';font-variant-ligatures:normal;font-variant-caps:normal;font-variant-numeric:normal;font-variant-east-asian:normal;display:none;fill:#2cbe4e;fill-opacity:1;stroke-width:0.265;stroke-dasharray:none"
       x="65.379723"
       y="47.104095"
       id="text17"
       inkscape:label="更了"><tspan
         sodipodi:role="line"
         id="tspan17"
         x="65.379723"
         y="47.104095">更了</tspan></text><text
       xml:space="preserve"
       style="font-size:33.8666px;line-height:1.25;font-family:'MiSans VF';-inkscape-font-specification:'MiSans VF';display:none;fill:#586069;fill-opacity:1;stroke-width:0.265;stroke-dasharray:none"
       x="65.379723"
       y="47.104095"
       id="text12"
       inkscape:label="排了"><tspan
         sodipodi:role="line"
         id="tspan12"
         style="font-size:33.8666px;fill:#586069;fill-opacity:1;stroke-width:0.265;stroke-dasharray:none"
         x="65.379723"
         y="47.104095">排了</tspan></text><text
       xml:space="preserve"
       style="font-size:33.8666px;line-height:1.25;font-family:'MiSans VF';-inkscape-font-specification:'MiSans VF';display:none;fill:#fac905;fill-opacity:1;stroke-width:0.265;stroke-dasharray:none"
       x="65.379723"
       y="47.104095"
       id="text18"
       inkscape:label="成了"><tspan
         sodipodi:role="line"
         id="tspan18"
         style="font-size:33.8666px;fill:#fac905;fill-opacity:1;stroke-width:0.265;stroke-dasharray:none"
         x="65.379723"
         y="47.104095">成了</tspan></text><text
       xml:space="preserve"
       style="font-style:normal;font-variant:normal;font-weight:normal;font-stretch:normal;font-size:33.8666px;line-height:1.25;font-family:'MiSans VF';-inkscape-font-specification:'MiSans VF, Normal';font-variant-ligatures:normal;font-variant-caps:normal;font-variant-numeric:normal;font-variant-east-asian:normal;display:none;fill:#2cbe4e;fill-opacity:1;stroke-width:0.265;stroke-dasharray:none"
       x="65.379723"
       y="47.104095"
       id="text19"
       inkscape:label="测了"><tspan
         sodipodi:role="line"
         id="tspan19"
         x="65.379723"
         y="47.104095">测了</tspan></text><text
       xml:space="preserve"
       style="font-style:normal;font-variant:normal;font-weight:normal;font-stretch:normal;font-size:33.8666px;line-height:1.25;font-family:'MiSans VF';-inkscape-font-specification:'MiSans VF, Normal';font-variant-ligatures:normal;font-variant-caps:normal;font-variant-numeric:normal;font-variant-east-asian:normal;display:none;fill:#2cbe4e;fill-opacity:1;stroke-width:0.265;stroke-dasharray:none"
       x="65.379723"
       y="47.104095"
       id="text20"
       inkscape:label="发了"><tspan
         sodipodi:role="line"
         id="tspan20"
         x="65.379723"
         y="47.104095">发了</tspan></text><text
       xml:space="preserve"
       style="font-style:normal;font-variant:normal;font-weight:normal;font-stretch:normal;font-size:33.8666px;line-height:1.25;font-family:'MiSans VF';-inkscape-font-specification:'MiSans VF, Normal';font-variant-ligatures:normal;font-variant-caps:normal;font-variant-numeric:normal;font-variant-east-asian:normal;display:none;fill:#f8c42c;fill-opacity:1;stroke-width:0.265;stroke-dasharray:none"
       x="65.379723"
       y="47.104095"
       id="text21"
       inkscape:label="吐了"><tspan
         sodipodi:role="line"
         id="tspan21"
         x="65.379723"
         y="47.104095">吐了</tspan></text><text
       xml:space="preserve"
       style="font-style:normal;font-variant:normal;font-weight:normal;font-stretch:normal;font-size:33.8666px;line-height:1.25;font-family:'MiSans VF';-inkscape-font-specification:'MiSans VF, Normal';font-variant-ligatures:normal;font-variant-caps:normal;font-variant-numeric:normal;font-variant-east-asian:normal;display:none;fill:#fac905;fill-opacity:1;stroke-width:0.265;stroke-dasharray:none"
       x="65.379723"
       y="47.104095"
       id="text22"
       inkscape:label="麻了"><tspan
         sodipodi:role="line"
         id="tspan22"
         x="65.379723"
         y="47.104095">麻了</tspan></text><text
       xml:space="preserve"
       style="font-style:normal;font-variant:normal;font-weight:normal;font-stretch:normal;font-size:33.8666px;line-height:1.25;font-family:'MiSans VF';-inkscape-font-specification:'MiSans VF, Normal';font-variant-ligatures:normal;font-variant-caps:normal;font-variant-numeric:normal;font-variant-east-asian:normal;display:inline;fill:#2cbe4e;fill-opacity:1;stroke-width:0.265;stroke-dasharray:none"
       x="65.379723"
       y="47.104095"
       id="text23"
       inkscape:label="转了"><tspan
         sodipodi:role="line"
         id="tspan23"
         x="65.379723"
         y="47.104095">转了</tspan></text></g><g
     id="g4"
     inkscape:label="image"
     transform="matrix(0.75,0,0,0.75,7.9375,8.4666663)"
     style="display:inline"><image
       width="50.799999"
       height="50.799999"
       preserveAspectRatio="none"
       xlink:href="../slack-github-emoji/png/opened.png"
       id="image8"
       x="6.3499999"
       y="8.4666672"
       inkscape:label="opened"
       style="display:none" /><image
       width="50.799999"
       height="50.799999"
       preserveAspectRatio="none"
       xlink:href="../slack-github-emoji/png/closed.png"
       id="image2"
       x="6.3499999"
       y="8.4666672"
       inkscape:label="closed"
       style="display:none" /><image
       width="50.799999"
       height="50.799999"
       preserveAspectRatio="none"
       xlink:href="../slack-github-emoji/png/merged.png"
       id="image4"
       x="6.3499999"
       y="8.4666672"
       inkscape:label="merged"
       style="display:none" /><image
       width="50.799999"
       height="50.799999"
       preserveAspectRatio="none"
       xlink:href="../slack-github-emoji/png/requested-changes.png"
       id="image5"
       x="6.3499999"
       y="8.4666672"
       inkscape:label="requested changes"
       style="display:none" /><image
       width="50.799999"
       height="50.799999"
       preserveAspectRatio="none"
       xlink:href="../slack-github-emoji/png/reviewed.png"
       id="image6"
       x="6.3499999"
       y="8.4666672"
       inkscape:label="reviewed"
       style="display:none" /><image
       width="50.799999"
       height="50.799999"
       preserveAspectRatio="none"
       xlink:href="../slack-github-emoji/png/pushed.png"
       id="image7"
       x="6.3499999"
       y="8.4666672"
       inkscape:label="pushed"
       style="display:none" /><image
       width="50.799999"
       height="50.799999"
       preserveAspectRatio="none"
       xlink:href="../slack-github-emoji/png/approved.png"
       id="image1"
       x="6.3499999"
       y="8.4666672"
       inkscape:label="approved"
       style="display:none" /><path
       d="M 6.35,33.866671 C 6.35,19.838941 17.722274,8.4666667 31.750004,8.4666667 45.77773,8.4666667 57.15,19.838941 57.15,33.866671 57.15,47.894393 45.77773,59.266667 31.750004,59.266667 17.722274,59.266667 6.35,47.894393 6.35,33.866671 Z m 37.59201,-6.28073 a 1.7341273,1.7341273 0 0 0 -0.0419,-2.406074 1.7341273,1.7341273 0 0 0 -2.40607,-0.04189 L 27.708771,38.923245 22.005314,33.219788 a 1.7341273,1.7341273 0 0 0 -2.406074,0.04189 1.7341273,1.7341273 0 0 0 -0.04189,2.406075 l 6.927273,6.927273 a 1.7318183,1.7318183 0 0 0 2.447634,0 z"
       id="path1"
       style="display:none;fill:#2cbe4e;fill-opacity:1;stroke-width:2.30909"
       inkscape:label="check" /><path
       d="M 6.35,33.866671 C 6.35,19.838941 17.722274,8.4666669 31.750004,8.4666669 45.77773,8.4666669 57.15,19.838941 57.15,33.866671 57.15,47.894393 45.77773,59.266667 31.750004,59.266667 17.722274,59.266667 6.35,47.894393 6.35,33.866671 Z m 18.555859,-9.291788 a 1.7341273,1.7341273 0 0 0 -2.406075,0.04189 1.7341273,1.7341273 0 0 0 -0.04189,2.406073 l 6.841815,6.844172 -6.841842,6.841834 a 1.7295093,1.7295093 0 0 0 0.752728,2.944093 1.7295093,1.7295093 0 0 0 1.69488,-0.496495 l 6.844146,-6.841832 6.841832,6.844146 a 1.7318183,1.7318183 0 0 0 2.450332,-2.447949 l -6.841842,-6.844146 6.841842,-6.844145 a 1.7295093,1.7295093 0 0 0 -0.75273,-2.944094 1.7295093,1.7295093 0 0 0 -1.69487,0.496495 l -6.844146,6.841842 z"
       id="path11"
       style="display:none;fill:#cb2431;fill-opacity:1;stroke-width:2.30909"
       inkscape:label="x" /><path
       d="m 31.749995,57.171165 -3.682992,-3.3528 C 14.985996,41.956567 6.35,34.107973 6.35,24.532165 c 0,-7.848595 6.146803,-13.969996 13.969996,-13.969996 4.419599,0 8.661407,2.057405 11.429999,5.283197 2.768601,-3.225792 7.0104,-5.283197 11.429999,-5.283197 7.823203,0 13.970006,6.121401 13.970006,13.969996 0,9.575808 -8.636006,17.424402 -21.717004,29.2862 z"
       id="path1-2"
       style="display:none;fill:#cb2431;fill-opacity:1;stroke-width:2.54"
       inkscape:label="heart" /><g
       id="g15"
       inkscape:label="bad"
       transform="translate(-4.8962801,-7.8449609)"
       style="display:none"><path
         style="fill:none;stroke:#586069;stroke-width:4.23333;stroke-linecap:round;stroke-linejoin:miter;stroke-dasharray:none;stroke-opacity:1"
         d="M 19.463731,53.896218 C 25.501085,62.943797 53.828832,50.28443 53.828832,50.28443"
         id="path15"
         inkscape:label="smile" /><path
         d="m 25.855093,43.582555 h -6.477259 c -3.497719,0 -6.563627,-2.720449 -6.995439,-6.174992 l -1.079546,-6.455666 c -0.237465,-1.835225 0.280715,-3.562488 1.403405,-4.814764 1.12273,-1.252267 2.763633,-1.986354 4.512489,-1.986354 H 30.17326 c 1.792048,0 3.411357,0.755647 4.447717,2.072723 0.23747,0.323884 0.45339,0.66931 0.62614,1.057946 0.92841,-0.194298 1.87841,-0.194298 2.78523,0 0.17275,-0.388677 0.38859,-0.734103 0.64768,-1.057946 1.01477,-1.317044 2.63408,-2.072723 4.44772,-2.072723 h 12.95451 c 1.74887,0 3.38977,0.734103 4.51249,1.986354 1.10114,1.252276 1.61932,2.979539 1.40342,4.728403 l -1.10114,6.628396 c -0.41022,3.368174 -3.49772,6.088623 -6.97385,6.088623 h -6.47726 c -3.36817,0 -6.64999,-2.569319 -7.47043,-5.829533 l -1.94318,-5.851125 c -0.82046,-0.604516 -1.96477,-0.604516 -2.78523,0 l -1.98635,6.002255 c -0.77727,3.130676 -4.037493,5.678403 -7.405667,5.678403 z"
         id="path1-7"
         style="fill:#586069;fill-opacity:1;stroke-width:2.15908"
         inkscape:label="sunglasses" /></g><g
       id="g19"
       inkscape:label="draft"
       style="display:none"
       transform="matrix(20.25,0,0,20.25,-445.15182,-528.53275)"><circle
         style="display:inline;fill:#e6ebf1;fill-opacity:1;stroke:none;stroke-width:4.23333;stroke-linecap:round"
         id="path19"
         cy="27.772812"
         cx="23.550707"
         r="1.254321"
         inkscape:label="draft background" /><path
         d="m 23.077984,27.075967 a 0.22401792,0.22396368 0 0 1 0.07467,0.435186 v 0.52318 a 0.22411748,0.22406322 0 1 1 -0.149346,0 v -0.52318 a 0.22411748,0.22406322 0 0 1 0.07467,-0.435186 z m 0.945854,1.393552 a 0.22401845,0.22396421 0 1 1 0,-0.447928 0.22401845,0.22396421 0 0 1 0,0.447928 z M 23.00331,27.29993 a 0.07467347,0.07465539 0 1 0 0.149346,0 0.07467347,0.07465539 0 0 0 -0.149346,0 z m 0.07468,0.870971 a 0.07467327,0.07465519 0 1 0 0,0.149309 0.07467327,0.07465519 0 0 0 0,-0.149309 z m 0.945853,0 a 0.07467327,0.07465519 0 1 0 0,0.149309 0.07467327,0.07465519 0 0 0 0,-0.149309 z m 0.12445,-0.447927 a 0.12445439,0.12442426 0 1 1 -0.248908,0 0.12445439,0.12442426 0 0 1 0.248908,0 z m 0,-0.423044 a 0.12445439,0.12442426 0 1 1 -0.248908,0 0.12445439,0.12442426 0 0 1 0.248908,0 z"
         id="path1-1"
         style="display:inline;fill:#586069;fill-opacity:1;stroke-width:0.0995516"
         inkscape:label="draft icon" /></g><path
       d="m 29.676531,7.9482829 c -0.5184,0 -1.036742,0.2592004 -1.555102,0.5183999 L 7.6459115,19.870759 C 6.8683121,20.389159 6.35,21.16668 6.35,22.203411 v 23.326531 c 0,1.036732 0.5183999,1.814283 1.2959115,2.332654 L 28.121429,59.26668 c 0.5184,0.2592 1.036731,0.5184 1.555102,0.5184 0.5184,0 1.03673,-0.2592 1.555102,-0.5184 l 2.332653,-1.29592 c -0.7776,-1.555104 -1.036742,-3.369386 -1.295922,-5.183679 V 35.421779 l 15.551017,-8.812242 v 9.848974 c 1.814289,0 3.628578,0.2592 5.183683,0.777502 V 22.203382 c 0,-1.036732 -0.518409,-1.814283 -1.295921,-2.332653 L 31.231633,8.4666542 C 30.713233,8.2074548 30.194892,7.9482543 29.676531,7.9482543 m 0,5.7020377 15.551019,8.553062 -5.183676,2.851022 -15.29184,-8.812251 4.924497,-2.591833 m -10.108164,5.442856 15.29183,9.071433 -5.183666,2.851014 -15.551021,-8.812241 5.442857,-3.110206 m -8.034701,7.516331 15.551021,8.812242 V 52.787024 L 11.533666,43.974781 V 26.609479 m 42.24694,17.106122 -9.330608,9.330612 -4.146943,-4.146945 -2.851013,3.110205 7.25714,7.775509 L 57.15,47.344165 Z"
       id="path1-12"
       style="display:none;fill:#2cbe4e;fill-opacity:1;stroke-width:2.59183"
       inkscape:label="package closed check" /><path
       d="M 44.449998,36.406664 H 34.289992 V 46.566669 H 29.209999 V 36.406664 H 19.049993 V 31.32667 H 29.209999 V 21.166664 h 5.079993 V 31.32667 H 44.449998 M 31.749995,8.4666722 A 25.399998,25.399998 0 0 0 6.35,33.866667 25.399998,25.399998 0 0 0 31.749995,59.266662 25.399998,25.399998 0 0 0 57.15,33.866667 25.399998,25.399998 0 0 0 31.749995,8.4666722 Z"
       id="path1-9"
       style="display:none;fill:#2cbe4e;fill-opacity:1;stroke-width:2.54"
       inkscape:label="plus circle" /><path
       d="M 31.750014,59.266664 A 25.399997,25.399997 0 0 1 6.3499995,33.866681 25.399997,25.399997 0 0 1 31.750014,8.4666674 25.399997,25.399997 0 0 1 57.149998,33.866681 25.399997,25.399997 0 0 1 31.750014,59.266664 m 0,-38.09999 -12.700007,12.700007 h 7.619998 V 44.026669 H 36.830001 V 33.866681 h 7.619998 z"
       id="path1-0"
       style="display:none;fill:#2cbe4e;fill-opacity:1;stroke-width:2.54"
       inkscape:label="arrow up bold circle" /><path
       d="m 13.969999,18.626664 c -2.794003,0 -5.0800035,2.285999 -5.0800035,5.080002 0,2.794003 2.2860005,5.080003 5.0800035,5.080003 2.794003,0 5.080003,-2.260598 5.080003,-5.080003 0,-2.819395 -2.260608,-5.080002 -5.080003,-5.080002 m 17.779995,-5.079993 c -2.793993,0 -5.079993,2.260598 -5.079993,5.079993 0,2.819404 2.286,5.080002 5.079993,5.080002 2.794003,0 5.080003,-2.260598 5.080003,-5.080002 0,-2.819395 -2.260598,-5.079993 -5.080003,-5.079993 M 49.529999,8.4666679 c -2.794003,0 -5.080003,2.2860001 -5.080003,5.0800031 0,2.793993 2.286,5.079993 5.080003,5.079993 2.793993,0 5.079993,-2.260599 5.079993,-5.079993 0,-2.819405 -2.260598,-5.0800031 -5.079993,-5.0800031 m -39.37,22.8599981 c -2.1081985,0 -3.8099995,1.701801 -3.8099995,3.809999 v 11.429999 h 2.539996 v 12.7 H 19.050002 v -12.7 h 2.539996 V 35.136665 c 0,-2.108198 -1.701801,-3.809999 -3.809999,-3.809999 h -7.62 m 17.779996,-5.080003 c -2.108199,0 -3.81,1.701801 -3.81,3.81 v 11.429999 h 2.540006 V 54.186664 H 36.829997 V 41.486662 h 2.539997 V 30.056663 c 0,-2.108199 -1.701802,-3.81 -3.81,-3.81 H 27.939995 M 45.719999,21.16667 c -2.108207,0 -3.809999,1.701801 -3.809999,3.81 v 11.429998 h 2.539996 V 49.106661 H 54.609992 V 36.406668 h 2.540005 V 24.97667 c 0,-2.108199 -1.7018,-3.81 -3.809998,-3.81 z"
       id="path1-3"
       style="display:none;fill:#586069;fill-opacity:1;stroke-width:2.54"
       inkscape:label="human queue" /><path
       d="M 44.449996,13.546671 V 8.4666679 H 19.050002 V 13.546671 H 6.3499995 v 17.779995 c 0,2.794003 2.286,5.080002 5.0800035,5.080002 h 7.873996 c 1.015996,4.978397 4.927602,8.889993 9.905999,9.906 v 5.537193 c -7.62,1.168406 -7.62,7.416803 -7.62,7.416803 H 41.91 c 0,0 0,-6.248397 -7.62,-7.416803 v -5.537193 c 4.978397,-1.016007 8.889993,-4.927603 9.906,-9.906 h 7.873996 c 2.794001,0 5.080001,-2.285999 5.080001,-5.080002 V 13.546671 H 44.449996 M 11.430003,31.326666 V 18.626664 h 7.619999 v 12.700002 h -7.619999 m 40.639993,0 h -7.62 V 18.626664 h 7.62 z"
       id="path1-36"
       style="display:none;fill:#fac905;fill-opacity:1;stroke-width:2.54"
       inkscape:label="trophy" /><path
       d="m 48.032047,20.632591 h -7.320408 c -1.172303,-2.084096 -2.787486,-3.907692 -4.741337,-5.21025 l 4.246361,-4.142158 -3.673226,-3.6732256 -5.65313,5.6531196 c -1.198355,-0.286523 -2.396721,-0.44288 -3.699278,-0.44288 -1.302568,0 -2.47488,0.156357 -3.673236,0.44288 l -5.679183,-5.6531196 -3.673225,3.6732256 4.220307,4.142158 c -1.953851,1.302558 -3.542971,3.152197 -4.715283,5.21025 H 6.3499995 v 5.210259 h 5.4447165 c -0.156357,0.859668 -0.234437,1.719385 -0.234437,2.605125 V 31.05311 H 6.3499995 v 5.21025 H 11.56026 v 2.605134 c 0,0.88576 0.07778,1.745428 0.234437,2.605125 H 6.3499995 v 5.210245 h 7.3204095 c 3.777437,6.51283 11.644927,9.40452 18.730869,6.9036 v -1.69334 c 0,-6.61702 4.194255,-12.504611 10.42051,-14.718971 v -0.911754 h 5.210259 v -5.21025 h -5.210259 v -2.605134 c 0,-0.88576 -0.07779,-1.745438 -0.234437,-2.605125 h 5.444726 V 20.63263 M 32.401308,41.473659 H 21.980769 v -5.21026 h 10.420509 v 5.21026 m 0,-10.42051 H 21.980769 V 25.84289 h 10.420509 v 5.210259 m 12.374361,29.073225 -7.164101,-7.81539 3.021952,-3.02194 4.142149,4.14215 9.352408,-9.35241 3.021952,3.67324 z"
       id="path1-79"
       style="display:none;fill:#2cbe4e;fill-opacity:1;stroke-width:2.60512"
       inkscape:label="bug check" /><path
       d="M 6.3741905,55.638094 57.149999,33.866666 6.3741905,12.095238 6.3499995,29.028571 42.635713,33.866666 6.3499995,38.704761 Z"
       id="path2"
       style="display:none;fill:#2cbe4e;stroke-width:2.41905"
       inkscape:label="send" /><g
       id="g7"
       transform="matrix(0.43793102,0,0,0.43793102,3.8975858,5.1551984)"
       inkscape:label="vomit"
       style="display:none"><g
         id="gold"
         style="display:inline">
	
		<radialGradient
   id="face_1_"
   cx="63.599998"
   cy="2288.8999"
   r="56.959702"
   gradientTransform="translate(0,-2226)"
   gradientUnits="userSpaceOnUse">
		<stop
   offset="0.5"
   style="stop-color:#FDE030"
   id="stop1" />
		<stop
   offset="0.92"
   style="stop-color:#F7C02B"
   id="stop2" />
		<stop
   offset="1"
   style="stop-color:#F4A223"
   id="stop3" />
	</radialGradient>
	<path
   id="face"
   style="display:inline;fill:url(#face_1_)"
   d="M 63.6,118.8 C 35.7,118.8 5.6,101.3 5.6,62.9 5.6,24.5 35.7,7 63.6,7 c 15.5,0 29.8,5.1 40.4,14.4 11.5,10.2 17.6,24.6 17.6,41.5 0,16.9 -6.1,31.2 -17.6,41.4 -10.6,9.3 -25,14.5 -40.4,14.5 z" />
	<path
   style="display:inline;fill:#eb8f00"
   d="m 111.49,29.67 c 5.33,8.6 8.11,18.84 8.11,30.23 0,16.9 -6.1,31.2 -17.6,41.4 -10.6,9.3 -25,14.5 -40.4,14.5 -18.06,0 -37,-7.35 -48.18,-22.94 10.76,17.66 31,25.94 50.18,25.94 15.4,0 29.8,-5.2 40.4,-14.5 11.5,-10.2 17.6,-24.5 17.6,-41.4 0,-12.74 -3.47,-24.06 -10.11,-33.23 z"
   id="path3" />
</g><g
         id="facial_expressions">
	<g
   id="face-with-open-mouth-vomiting">
		<g
   id="mouth">
			<g
   id="g6">
				<defs
   id="defs3">
					<path
   id="path4"
   d="m 64,68.82 c -17,0 -35.33,14.18 -35.33,31.67 0,4.89 5.61,7.74 10.62,5.75 7.87,-3.13 16.24,-4.79 24.71,-4.92 8.47,0.13 16.84,1.79 24.71,4.92 5,2 10.62,-0.86 10.62,-5.75 C 99.33,83 79.66,68.82 64,68.82 Z" />
				</defs>
				<clipPath
   id="SVGID_2_">
					<use
   xlink:href="#SVGID_1_"
   style="overflow:visible"
   id="use3" />
				</clipPath>
				<g
   clip-path="url(#SVGID_2_)"
   id="g5">
					<path
   style="fill:#422b0d"
   d="M 93.7,84.59 C 84,82.11 74.01,80.9 64,81 53.86,80.89 43.75,82.12 33.94,84.67 c -3.35,4.59 -5.19,10.11 -5.27,15.8 0,4.89 5.61,7.74 10.62,5.75 7.87,-3.12 16.24,-4.78 24.71,-4.9 8.47,0.13 16.84,1.79 24.71,4.92 5,2 10.62,-0.86 10.62,-5.75 -0.11,-5.77 -2.09,-11.35 -5.63,-15.9 z"
   id="path5" />
					<path
   style="fill:#ffffff"
   d="M 93.7,84.59 C 86.7,75.16 74.47,68.82 64,68.82 52.63,68.82 40.62,75.21 33.94,84.69 43.75,82.14 53.86,80.9 64,81 c 10.01,-0.1 20,1.11 29.7,3.59 z"
   id="path6" />
				</g>
			</g>
			
				<linearGradient
   id="SVGID_3_"
   gradientUnits="userSpaceOnUse"
   x1="64.9403"
   y1="48.639999"
   x2="64.9403"
   y2="4.54"
   gradientTransform="matrix(1,0,0,-1,0,130)">
				<stop
   offset="0"
   style="stop-color:#469643"
   id="stop6" />
				<stop
   offset="0.02"
   style="stop-color:#489743"
   id="stop7" />
				<stop
   offset="0.44"
   style="stop-color:#6DB141"
   id="stop8" />
				<stop
   offset="0.78"
   style="stop-color:#84C03F"
   id="stop9" />
				<stop
   offset="1"
   style="stop-color:#8CC63F"
   id="stop10" />
			</linearGradient>
			<path
   style="fill:url(#SVGID_3_)"
   d="m 96.7,119.17 c 4.86,-1.47 6.65,-3.17 6.42,-4.39 C 102.82,113.2 96,112.96 88,114.11 V 83.5 c 0,0 -8.11,-2.42 -24.5,-2.42 C 45.31,81.08 39,83.5 39,83.5 v 27.86 c -5,-0.29 -8.79,0.33 -9,1.68 -0.14,1.07 3,2.36 6.92,3.46 -7.58,0.78 -12.13,2 -12.13,3.37 0,2.35 14.44,4.25 32.05,4.25 6.92,0.04 13.84,-0.29 20.72,-1 3.82,0.55 7.67,0.8 11.53,0.77 8.84,0 16,-1.12 16,-2.5 0.05,-0.97 -3.36,-1.8 -8.39,-2.22 z"
   id="path10" />
			
				<ellipse
   transform="matrix(0.9891,-0.1473,0.1473,0.9891,-15.3879,17.4448)"
   style="fill:#368231"
   cx="110.1"
   cy="112.62"
   rx="2.6500001"
   ry="1.5599999"
   id="ellipse10" />
			
				<ellipse
   transform="matrix(0.2972,-0.9548,0.9548,0.2972,-90.3233,99.0557)"
   style="fill:#368231"
   cx="22.129999"
   cy="110.88"
   rx="2.1600001"
   ry="3.6700001"
   id="ellipse11" />
			<ellipse
   style="fill:#368231"
   cx="58.25"
   cy="110.54"
   rx="2.4200001"
   ry="4.71"
   id="ellipse12" />
			<ellipse
   style="fill:#368231"
   cx="62.75"
   cy="93.919998"
   rx="2.25"
   ry="4.0799999"
   id="ellipse13" />
			<ellipse
   style="fill:#368231"
   cx="76.379997"
   cy="103.83"
   rx="3.96"
   ry="7.25"
   id="ellipse14" />
			<ellipse
   style="fill:#368231"
   cx="48.209999"
   cy="98.309998"
   rx="1.88"
   ry="3.27"
   id="ellipse15" />
		</g>
		<g
   id="eyes">
			<g
   id="peepers">
				<path
   style="fill:#422b0d"
   d="M 33.19,60.55 45.37,58.19 32.82,53 32.4,52.77 c -2.05,-1.08 -2.83,-3.61 -1.75,-5.66 0.26,-0.49 0.61,-0.92 1.03,-1.27 2,-1.53 4.74,-1.65 6.87,-0.3 l 21.28,13 c 0.52,0.19 0.78,0.77 0.59,1.28 -0.13,0.35 -0.44,0.6 -0.81,0.65 L 36.7,69.09 c -0.16,0.06 -0.32,0.12 -0.48,0.16 -3,0.84 -6.33,-0.89 -6.8,-3.78 -0.35,-2.2 1.35,-4.25 3.77,-4.92 z"
   id="path15-7" />
				<path
   style="fill:#422b0d"
   d="M 95.81,60.3 83.63,57.94 96.18,52.73 96.6,52.5 c 2.05,-1.08 2.83,-3.61 1.75,-5.66 -0.26,-0.49 -0.61,-0.92 -1.03,-1.27 -2,-1.53 -4.74,-1.65 -6.87,-0.3 l -21.28,13 c -0.52,0.19 -0.78,0.77 -0.59,1.28 0.13,0.35 0.44,0.6 0.81,0.65 l 22.91,8.6 c 0.16,0.06 0.32,0.12 0.48,0.16 3,0.84 6.33,-0.89 6.8,-3.78 C 99.93,63 98.23,61 95.81,60.3 Z"
   id="path16" />
			</g>
		</g>
	</g>
	<g
   id="eyebrows">
		<path
   style="fill:#422b0d"
   d="m 31.4,34.8 c -2.2,0.4 -2.3,3.6 0.1,3.7 5.3,0.07 10.42,-1.9 14.3,-5.5 1.48,-1.28 2.73,-2.8 3.7,-4.5 0.58,-0.83 0.38,-1.97 -0.45,-2.55 -0.83,-0.58 -1.97,-0.38 -2.55,0.45 l -0.1,0.1 c -3.92,4.38 -9.21,7.31 -15,8.3 z"
   id="path17" />
		<path
   style="fill:#422b0d"
   d="m 80.5,26.4 c -0.58,-0.83 -1.72,-1.03 -2.55,-0.45 -0.83,0.58 -1.03,1.72 -0.45,2.55 0.97,1.7 2.22,3.22 3.7,4.5 3.9,3.57 9.01,5.54 14.3,5.5 2.5,-0.1 2.3,-3.3 0.1,-3.7 -5.86,-0.96 -11.19,-3.93 -15.1,-8.4 v 0"
   id="path18" />
	</g>
</g></g><path
       d="m 34.895051,5.2531569 c -12.081263,0 -21.619099,9.5378361 -22.254947,21.3011641 l -6.0406384,7.948193 c -0.635895,0.953723 0,2.543427 1.27172,2.543427 h 4.7689184 v 9.537836 c 0,3.497211 2.861351,6.358561 6.358549,6.358561 h 3.179275 v 9.537837 h 22.25496 V 47.537561 c 7.630269,-3.497211 12.717115,-11.12748 12.717115,-20.029457 0,-12.399187 -9.855765,-22.2549471 -22.254952,-22.2549471 m 6.35855,19.0756731 -9.85576,19.075672 1.907567,-12.717123 h -6.358562 l 6.358562,-15.896386 h 7.948193 l -4.768918,9.537837 z"
       id="path1-70"
       style="display:none;fill:#fac905;fill-opacity:1;stroke-width:3.17927"
       inkscape:label="head flash" /><g
       style="display:inline;fill:none"
       id="g22"
       transform="matrix(0.49453416,0,0,0.49453416,6.2849713,16.847318)"
       inkscape:label="retweet"><path
         d="M 2.46191,17.9185 18.0418,5.08801 33.6218,17.9185"
         stroke="#ffffff"
         stroke-width="7.33173"
         id="path1-93"
         style="stroke:#2cbe4e;stroke-opacity:1" /><path
         d="M 18.0419,9.67026 V 53.6607 c 0,5.4988 3.6658,10.0811 11.914,10.0811 7.3318,0 19.5513,0 24.7447,0"
         stroke="#ffffff"
         stroke-width="7.33173"
         id="path2-6"
         style="stroke:#2cbe4e;stroke-opacity:1" /><path
         d="M 100.524,50.9113 84.9442,63.7418 69.3642,50.9113"
         stroke="#ffffff"
         stroke-width="7.33173"
         id="path3-0"
         style="stroke:#2cbe4e;stroke-opacity:1" /><path
         d="M 84.9442,59.1595 V 15.169 c 0,-5.49875 -3.6659,-10.08109 -11.9141,-10.08109 -7.3317,0 -19.5513,0 -24.7446,0"
         stroke="#ffffff"
         stroke-width="7.33173"
         id="path4-6"
         style="stroke:#2cbe4e;stroke-opacity:1" /></g></g></svg>
